# xmcd
#
# Track frame offsets: 
#        150
#        31159
#        57564
#        80241
#        101674
#        123881
#        145810
#        165315
#        190080
#        208025
#
# Disc length: 3025 seconds
#
# Revision: 1
# Processed by: cddbd v1.5.2PL0 Copyright (c) Steve Scherf et al.
# Submitted via: ExactAudioCopy v0.95b4
#
DISCID=860bcf0a
DTITLE=Various Jazz - Smooth Jazz Romance
DYEAR=1900
DGENRE=Smooth Jazz
TTITLE0=Chuck Loeb - Blue Kiss
TTITLE1=Fattburger - In Your Eyes
TTITLE2=Special EFX - Bella
TTITLE3=Pura Fe - Plenty For You
TTITLE4=Larry Coryell - Ring Around The Moon
TTITLE5=Noel Pointer - Look Of Love
TTITLE6=Chieli Minucci - Sweet On You
TTITLE7=The Fantasy Band - The Kiss
TTITLE8=Ken Navarro - So Fine
TTITLE9=Nelson Rangell - All In All
EXTD=
EXTT0=
EXTT1=
EXTT2=
EXTT3=
EXTT4=
EXTT5=
EXTT6=
EXTT7=
EXTT8=
EXTT9=
PLAYORDER=
